<svg xmlns="http://www.w3.org/2000/svg" width="600" height="60" style="overflow:visible;margin:5px"><defs><marker id="red-arrowhead" markerHeight="3" markerUnits="strokeWidth" markerWidth="10" orient="auto" refX="7" refY="5" viewBox="0 0 10 10"><path fill="red" stroke="none" d="M 0 0 L 10 5 L 0 10 z"/></marker></defs><rect width="10" height="30" x="60" y="20" fill="red" stroke="#000" stroke-width="2"/><rect width="10" height="30" x="70" y="20" fill="transparent" stroke="#000" stroke-width="2"/><rect width="10" height="30" x="80" y="20" fill="transparent" stroke="#000" stroke-width="2"/><rect width="10" height="30" x="90" y="20" fill="transparent" stroke="#000" stroke-width="2"/><rect width="10" height="30" x="100" y="20" fill="transparent" stroke="#000" stroke-width="2"/><rect width="10" height="30" x="110" y="20" fill="red" stroke="#000" stroke-width="2"/><rect width="10" height="30" x="120" y="20" fill="red" stroke="#000" stroke-width="2"/><rect width="10" height="30" x="130" y="20" fill="red" stroke="#000" stroke-width="2"/><rect width="10" height="30" x="140" y="20" fill="red" stroke="#000" stroke-width="2"/><rect width="10" height="30" x="150" y="20" fill="red" stroke="#000" stroke-width="2"/><rect width="10" height="30" x="160" y="20" fill="red" stroke="#000" stroke-width="2"/><rect width="10" height="30" x="170" y="20" fill="red" stroke="#000" stroke-width="2"/><rect width="10" height="30" x="180" y="20" fill="red" stroke="#000" stroke-width="2"/><rect width="10" height="30" x="190" y="20" fill="red" stroke="#000" stroke-width="2"/><rect width="10" height="30" x="200" y="20" fill="red" stroke="#000" stroke-width="2"/><rect width="10" height="30" x="210" y="20" fill="red" stroke="#000" stroke-width="2"/><rect width="10" height="30" x="220" y="20" fill="transparent" stroke="#000" stroke-width="2"/><circle cx="240" cy="35" r="5"/><circle cx="260" cy="35" r="5"/><circle cx="280" cy="35" r="5"/><path fill="transparent" stroke="#000" stroke-width="3" marker-end="url(#red-arrowhead)" d="M 65 20 Q 90 -10 115 20"/><path fill="transparent" stroke="#000" stroke-width="3" marker-end="url(#red-arrowhead)" d="M 115 20 Q 120 -10 125 20"/><path fill="transparent" stroke="#000" stroke-width="3" marker-end="url(#red-arrowhead)" d="M 125 20 Q 130 -10 135 20"/><path fill="transparent" stroke="#000" stroke-width="3" marker-end="url(#red-arrowhead)" d="M 135 20 Q 140 -10 145 20"/><path fill="transparent" stroke="#000" stroke-width="3" marker-end="url(#red-arrowhead)" d="M 145 20 Q 150 -10 155 20"/><path fill="transparent" stroke="#000" stroke-width="3" marker-end="url(#red-arrowhead)" d="M 155 20 Q 160 -10 165 20"/><path fill="transparent" stroke="#000" stroke-width="3" marker-end="url(#red-arrowhead)" d="M 165 20 Q 170 -10 175 20"/><path fill="transparent" stroke="#000" stroke-width="3" marker-end="url(#red-arrowhead)" d="M 175 20 Q 180 -10 185 20"/><path fill="transparent" stroke="#000" stroke-width="3" marker-end="url(#red-arrowhead)" d="M 185 20 Q 190 -10 195 20"/><path fill="transparent" stroke="#000" stroke-width="3" marker-end="url(#red-arrowhead)" d="M 195 20 Q 200 -10 205 20"/><path fill="transparent" stroke="#000" stroke-width="3" marker-end="url(#red-arrowhead)" d="M 205 20 Q 210 -10 215 20"/><path fill="transparent" stroke="#000" stroke-width="3" marker-end="url(#red-arrowhead)" d="M 215 20 Q 265 -10 315 20"/></svg>