<svg xmlns="http://www.w3.org/2000/svg" width="600" height="60" style="overflow:visible;margin:5px"><defs><marker id="red-arrowhead" markerHeight="3" markerUnits="strokeWidth" markerWidth="10" orient="auto" refX="7" refY="5" viewBox="0 0 10 10"><path fill="red" stroke="none" d="M 0 0 L 10 5 L 0 10 z"/></marker></defs><rect width="10" height="30" x="60" y="20" fill="red" stroke="#000" stroke-width="2"/><rect width="10" height="30" x="70" y="20" fill="transparent" stroke="#000" stroke-width="2"/><rect width="10" height="30" x="80" y="20" fill="transparent" stroke="#000" stroke-width="2"/><rect width="10" height="30" x="90" y="20" fill="transparent" stroke="#000" stroke-width="2"/><rect width="10" height="30" x="100" y="20" fill="transparent" stroke="#000" stroke-width="2"/><rect width="10" height="30" x="110" y="20" fill="#ff0" stroke="#000" stroke-width="2"/><rect width="10" height="30" x="120" y="20" fill="#ff0" stroke="#000" stroke-width="2"/><rect width="10" height="30" x="130" y="20" fill="#ff0" stroke="#000" stroke-width="2"/><rect width="10" height="30" x="140" y="20" fill="#ff0" stroke="#000" stroke-width="2"/><rect width="10" height="30" x="150" y="20" fill="#ff0" stroke="#000" stroke-width="2"/><rect width="10" height="30" x="160" y="20" fill="#ff0" stroke="#000" stroke-width="2"/><rect width="10" height="30" x="170" y="20" fill="#ff0" stroke="#000" stroke-width="2"/><rect width="10" height="30" x="180" y="20" fill="#ff0" stroke="#000" stroke-width="2"/><rect width="10" height="30" x="190" y="20" fill="#ff0" stroke="#000" stroke-width="2"/><rect width="10" height="30" x="200" y="20" fill="#ff0" stroke="#000" stroke-width="2"/><rect width="10" height="30" x="210" y="20" fill="red" stroke="#000" stroke-width="2"/><rect width="10" height="30" x="220" y="20" fill="transparent" stroke="#000" stroke-width="2"/><circle cx="240" cy="35" r="5"/><circle cx="260" cy="35" r="5"/><circle cx="280" cy="35" r="5"/><path fill="transparent" stroke="#000" stroke-width="3" marker-end="url(#red-arrowhead)" d="M 65 20 Q 140 -10 215 20"/><path fill="transparent" stroke="#000" stroke-width="3" marker-end="url(#red-arrowhead)" d="M 215 20 Q 265 -10 315 20"/></svg>