<svg xmlns="http://www.w3.org/2000/svg" width="600" height="230" style="overflow:visible;margin:5px"><defs><marker id="red-arrowhead" markerHeight="3" markerUnits="strokeWidth" markerWidth="10" orient="auto" refX="7" refY="5" viewBox="0 0 10 10"><path fill="red" stroke="none" d="M 0 0 L 10 5 L 0 10 z"/></marker></defs><line x1="10" x2="10" y1="30" y2="0" stroke="#000"/><line x1="210" x2="210" y1="30" y2="0" stroke="#000"/><rect width="200" height="30" x="10" y="0" fill="#d3d3d3"/><text x="35" y="20">...(previous object)...</text><rect width="200" height="120" x="10" y="30" fill="transparent" stroke="#000" stroke-width="2"/><line x1="10" x2="10" y1="150" y2="180" stroke="#000"/><line x1="210" x2="210" y1="150" y2="180" stroke="#000"/><rect width="200" height="30" x="10" y="150" fill="#d3d3d3"/><text x="35" y="170">...(next object)...</text><text x="20" y="50">Map (hidden class)</text><line x1="10" x2="210" y1="55" y2="55" stroke="#000"/><text x="20" y="70">Properties</text><line x1="10" x2="210" y1="75" y2="75" stroke="#000"/><text x="20" y="90">Elements</text><line x1="10" x2="210" y1="95" y2="95" stroke="#000"/><text x="20" y="110">In-object property #1</text><line x1="10" x2="210" y1="115" y2="115" stroke="#000"/><text x="20" y="130">In-object property #2</text><line x1="210" x2="290" y1="65" y2="50" stroke="#000" stroke-width="2" marker-end="url(#red-arrowhead)"/><text x="295" y="40">Property backing store</text><rect width="180" height="120" x="290" y="50" fill="transparent" stroke="#000" stroke-width="2"/><text x="300" y="70">Property #1</text><text x="300" y="90">Property #2</text><text x="300" y="110">Property #3</text><text x="300" y="130">...</text></svg>